<svg xmlns="http://www.w3.org/2000/svg" version="1.1" xmlns:xlink="http://www.w3.org/1999/xlink" xmlns:svgjs="http://svgjs.dev/svgjs" width="1500" height="1500" viewBox="0 0 1500 1500"><rect width="1500" height="1500" fill="#ffffff"></rect><g transform="matrix(0.6666666666666666,0,0,0.6666666666666666,249.39393939393938,438.58569500674764)"><svg viewBox="0 0 396 247" data-background-color="#ffd700" preserveAspectRatio="xMidYMid meet" height="935" width="1500" xmlns="http://www.w3.org/2000/svg" xmlns:xlink="http://www.w3.org/1999/xlink"><g id="tight-bounds" transform="matrix(1,0,0,1,0.2400000000000091,-0.09999999999999432)"><svg viewBox="0 0 395.52 247.2" height="247.2" width="395.52"><g><svg></svg></g><g><svg viewBox="0 0 395.52 247.2" height="247.2" width="395.52"><g transform="matrix(1,0,0,1,75.54432,86.35222056497176)"><svg viewBox="0 0 244.43135999999998 74.49555887005648" height="74.49555887005648" width="244.43135999999998"><g><svg viewBox="0 0 244.43135999999998 74.49555887005648" height="74.49555887005648" width="244.43135999999998"><g><svg viewBox="0 0 244.43135999999998 74.49555887005648" height="74.49555887005648" width="244.43135999999998"><g id="textblocktransform"><svg viewBox="0 0 244.43135999999998 74.49555887005648" height="74.49555887005648" width="244.43135999999998" id="textblock"><g><svg viewBox="0 0 244.43135999999998 74.49555887005648" height="74.49555887005648" width="244.43135999999998"><g transform="matrix(1,0,0,1,0,0)"><svg width="244.43135999999998" viewBox="0.35 -37.7 159.29 48.550000000000004" height="74.49555887005648" data-palette-color="#000000"><path d="M11.75-35.25Q14.75-35.25 17.05-34.2 19.35-33.15 21.3-31.05L21.3-31.05 18.35-27.65Q16.8-29.05 15.33-29.75 13.85-30.45 12.2-30.45L12.2-30.45Q10.3-30.45 9.2-29.28 8.1-28.1 8.1-26.2L8.1-26.2Q8.1-24.3 9.25-23.1 10.4-21.9 13.75-20.6L13.75-20.6Q18.05-18.85 20.08-16.5 22.1-14.15 22.1-9.85L22.1-9.85Q22.1-6.9 20.75-4.48 19.4-2.05 16.88-0.65 14.35 0.75 11 0.75L11 0.75Q7.55 0.75 5-0.48 2.45-1.7 0.35-3.95L0.35-3.95 3.55-7.45Q5.35-5.85 7-5 8.65-4.15 10.6-4.15L10.6-4.15Q12.9-4.15 14.18-5.58 15.45-7 15.45-9.45L15.45-9.45Q15.45-11.6 14.33-12.98 13.2-14.35 10.15-15.5L10.15-15.5Q5.55-17.35 3.53-19.75 1.5-22.15 1.5-25.75L1.5-25.75Q1.5-28.5 2.83-30.65 4.15-32.8 6.5-34.02 8.85-35.25 11.75-35.25L11.75-35.25ZM38.3-27.15Q42.2-27.15 44.2-23.58 46.2-20 46.2-13.3L46.2-13.3Q46.2-6.8 43.92-3.03 41.65 0.75 37.6 0.75L37.6 0.75Q34.4 0.75 32.25-2.1L32.25-2.1 32.25 10.15 26.1 10.85 26.1-26.45 31.55-26.45 31.8-23.25Q33.1-25.25 34.7-26.2 36.3-27.15 38.3-27.15L38.3-27.15ZM35.95-3.95Q37.85-3.95 38.85-6.13 39.85-8.3 39.85-13.25L39.85-13.25Q39.85-18.45 39-20.5 38.15-22.55 36.35-22.55L36.35-22.55Q34.05-22.55 32.25-19.25L32.25-19.25 32.25-6.45Q33.85-3.95 35.95-3.95L35.95-3.95ZM67.7-6.4Q67.7-5.1 68.05-4.48 68.4-3.85 69.2-3.45L69.2-3.45 67.95 0.65Q65.9 0.4 64.67-0.45 63.45-1.3 62.85-3.05L62.85-3.05Q60.55 0.75 56.4 0.75L56.4 0.75Q53.1 0.75 51.15-1.48 49.2-3.7 49.2-7.4L49.2-7.4Q49.2-11.7 51.87-13.95 54.55-16.2 59.65-16.2L59.65-16.2 61.7-16.2 61.7-18.05Q61.7-20.55 60.82-21.58 59.95-22.6 58-22.6L58-22.6Q55.65-22.6 52.15-21.3L52.15-21.3 50.75-25.3Q52.75-26.2 54.9-26.68 57.05-27.15 59-27.15L59-27.15Q67.7-27.15 67.7-18.35L67.7-18.35 67.7-6.4ZM58.05-3.7Q60.45-3.7 61.7-7L61.7-7 61.7-12.55 60.25-12.55Q57.7-12.55 56.52-11.4 55.35-10.25 55.35-7.85L55.35-7.85Q55.35-5.8 56.05-4.75 56.75-3.7 58.05-3.7L58.05-3.7ZM85.14-27.1Q86.29-27.1 87.19-26.75L87.19-26.75 86.19-20.85Q85.19-21.1 84.34-21.1L84.34-21.1Q82.44-21.1 81.34-19.45 80.24-17.8 79.64-14.55L79.64-14.55 79.64 0 73.49 0 73.49-26.45 78.84-26.45 79.29-21.85Q81.14-27.1 85.14-27.1L85.14-27.1ZM90.04-37.05L96.19-37.7 96.19 0 90.04 0 90.04-37.05ZM103.54-26.45L109.54-26.45 102.54-14.75 110.14 0 103.54 0 96.44-14.45 103.54-26.45ZM134.19-34.55L134.19-9.7Q134.19-5.15 131.36-2.23 128.54 0.7 123.29 0.7L123.29 0.7Q117.94 0.7 115.14-2.18 112.34-5.05 112.34-9.7L112.34-9.7 112.34-34.55 118.69-34.55 118.69-10Q118.69-7.1 119.79-5.68 120.89-4.25 123.29-4.25L123.29-4.25Q125.64-4.25 126.74-5.68 127.84-7.1 127.84-10L127.84-10 127.84-34.55 134.19-34.55ZM151.74-27.15Q155.64-27.15 157.64-23.58 159.64-20 159.64-13.3L159.64-13.3Q159.64-6.8 157.36-3.03 155.09 0.75 151.04 0.75L151.04 0.75Q147.84 0.75 145.69-2.1L145.69-2.1 145.69 10.15 139.54 10.85 139.54-26.45 144.99-26.45 145.24-23.25Q146.54-25.25 148.14-26.2 149.74-27.15 151.74-27.15L151.74-27.15ZM149.39-3.95Q151.29-3.95 152.29-6.13 153.29-8.3 153.29-13.25L153.29-13.25Q153.29-18.45 152.44-20.5 151.59-22.55 149.79-22.55L149.79-22.55Q147.49-22.55 145.69-19.25L145.69-19.25 145.69-6.45Q147.29-3.95 149.39-3.95L149.39-3.95Z" opacity="1" transform="matrix(1,0,0,1,0,0)" fill="#000000" class="wordmark-text-0" data-fill-palette-color="primary" id="text-0"></path></svg></g></svg></g></svg></g></svg></g><g></g></svg></g></svg></g><g><path d="M88.536 68.766A122.216 122.216 0 0 1 306.984 68.766L300.266 68.766A115.498 115.498 0 0 0 95.254 68.766L88.536 68.766M88.536 178.434A122.216 122.216 0 0 0 306.984 178.434L300.266 178.434A115.498 115.498 0 0 1 95.254 178.434L88.536 178.434" fill="#000000" stroke="transparent" data-fill-palette-color="tertiary"></path></g></svg></g><defs></defs></svg><rect width="395.52" height="247.2" fill="none" stroke="none" visibility="hidden"></rect></g></svg></g></svg>